<mxfile host="Electron" modified="2024-04-27T17:10:44.761Z" agent="Mozilla/5.0 (Macintosh; Intel Mac OS X 10_15_7) AppleWebKit/537.36 (KHTML, like Gecko) draw.io/24.1.0 Chrome/120.0.6099.109 Electron/28.1.0 Safari/537.36" etag="K8jR2hNojyjiwHR5ktxv" version="24.1.0" type="device">
  <diagram name="第 1 页" id="NR8qKkRdrIZwBsnWjxsc">
    <mxGraphModel dx="1434" dy="854" grid="1" gridSize="10" guides="1" tooltips="1" connect="1" arrows="1" fold="1" page="1" pageScale="1" pageWidth="827" pageHeight="1169" math="0" shadow="0">
      <root>
        <mxCell id="0" />
        <mxCell id="1" parent="0" />
        <mxCell id="Nzfo7FcO9nCi_7xBLZ9K-1" value="" style="rounded=0;whiteSpace=wrap;html=1;" vertex="1" parent="1">
          <mxGeometry x="380" y="350" width="120" height="60" as="geometry" />
        </mxCell>
        <mxCell id="Nzfo7FcO9nCi_7xBLZ9K-2" value="" style="rounded=0;whiteSpace=wrap;html=1;" vertex="1" parent="1">
          <mxGeometry x="590" y="350" width="120" height="60" as="geometry" />
        </mxCell>
        <mxCell id="Nzfo7FcO9nCi_7xBLZ9K-4" value="DB" style="shape=cylinder3;whiteSpace=wrap;html=1;boundedLbl=1;backgroundOutline=1;size=15;" vertex="1" parent="1">
          <mxGeometry x="510" y="490" width="60" height="80" as="geometry" />
        </mxCell>
      </root>
    </mxGraphModel>
  </diagram>
</mxfile>
